# xmcd
#
# Track frame offsets: 
#        150
#        31372
#        65075
#        80463
#        108066
#        135552
#        155207
#        178083
#        208098
#        234658
#        272375
#        290212
#        315706
#
# Disc length: 4697 seconds
#
# Revision: 0
# Processed by: cddbd v1.5.2PL0 Copyright (c) Steve Scherf et al.
# Submitted via: ExactAudioCopy v0.99pb4
#
DISCID=c012570d
DTITLE=Cream - London May 2-3-5-6  2005 Royal Albert Halll
DYEAR=1900
DGENRE=Blues
TTITLE0=I´m so glad
TTITLE1=Spoonful
TTITLE2=Pressed rat and warthog
TTITLE3=Sleepy time time
TTITLE4=N.S.U.
TTITLE5=Badge
TTITLE6=Politican
TTITLE7=Sweet wine
TTITLE8=Rollin´ and tumblin´
TTITLE9=Stormy monday
TTITLE10=Deserted cities of the heart
TTITLE11=Born under a bad sign
TTITLE12=We´re going wrong
EXTD=
EXTT0=
EXTT1=
EXTT2=
EXTT3=
EXTT4=
EXTT5=
EXTT6=
EXTT7=
EXTT8=
EXTT9=
EXTT10=
EXTT11=
EXTT12=
PLAYORDER=
